 <svg  version="1.0" xmlns="http://www.w3.org/2000/svg"  width="300.000000pt" height="115.000000pt" viewBox="0 0 300.000000 115.000000"  preserveAspectRatio="xMidYMid meet">  <g transform="translate(0.000000,115.000000) scale(0.100000,-0.100000)" fill="#db854f" stroke="none"> <path d="M807 954 c-1 -1 -45 -4 -98 -7 -219 -14 -486 -111 -560 -205 -41 -53 -2 -97 96 -106 33 -3 61 -5 63 -6 2 0 0 -5 -4 -12 -4 -7 -3 -8 4 -4 7 4 12 15 12 24 0 14 -9 17 -52 14 -104 -5 -135 40 -72 104 81 80 307 156 523 175 249 22 375 -37 317 -149 -17 -34 -128 -140 -181 -174 -23 -16 -98 -42 -180 -63 -77 -20 -155 -43 -174 -51 -19 -8 -36 -12 -39 -9 -3 2 23 71 57 152 61 146 83 223 64 223 -5 0 -17 -24 -26 -52 -9 -29 -43 -118 -76 -197 l-59 -144 -73 -27 c-188 -69 -336 -163 -308 -196 6 -8 26 -14 43 -14 104 0 484 163 686 295 41 27 93 52 115 56 229 39 361 59 394 59 22 0 43 5 47 11 5 8 -8 10 -46 5 -59 -7 -115 7 -124 31 -22 57 128 150 324 202 327 87 593 50 565 -78 -8 -39 -81 -120 -162 -181 -52 -40 -79 -52 -156 -70 -50 -13 -132 -36 -182 -51 -49 -15 -90 -27 -91 -26 -2 1 15 45 37 97 55 129 99 248 99 267 0 34 -23 3 -45 -62 -13 -39 -46 -124 -73 -190 -53 -132 -44 -123 -177 -176 -169 -66 -276 -137 -262 -173 25 -64 438 93 729 276 l88 55 172 27 c95 15 179 29 186 32 10 3 11 -2 6 -19 -16 -51 -67 -146 -81 -152 -22 -8 -26 0 -13 25 16 30 4 38 -31 18 -16 -9 -29 -13 -29 -8 0 16 -36 12 -50 -5 -19 -23 -31 -18 -20 10 14 36 -6 32 -25 -5 -8 -16 -24 -34 -34 -40 -29 -15 -61 -12 -61 5 0 9 9 15 24 15 31 0 55 27 32 36 -27 10 -62 -4 -76 -32 -13 -23 -13 -27 4 -39 10 -8 28 -11 39 -9 12 3 34 5 48 5 15 0 37 11 50 25 28 29 44 31 29 3 -18 -32 -5 -34 33 -5 41 32 47 32 44 4 -2 -18 2 -22 20 -20 18 2 21 -1 16 -20 l-5 -23 19 23 c12 15 28 22 48 21 17 -1 45 2 63 6 21 5 32 4 32 -4 0 -18 56 -12 74 8 28 31 17 56 -23 54 -19 -1 -37 -6 -40 -12 -4 -6 -23 -17 -44 -26 -71 -29 -109 -10 -42 22 19 9 35 21 35 25 0 5 -9 4 -21 -2 -35 -19 -37 -7 -8 58 25 56 31 62 58 62 16 0 33 5 37 11 5 8 -3 10 -25 7 -26 -4 -31 -1 -31 16 0 21 -1 21 -18 -1 -14 -18 -37 -24 -132 -38 -63 -8 -133 -20 -155 -25 -73 -17 -81 -12 -35 21 64 47 124 111 144 157 47 103 -49 162 -264 162 -58 0 -116 -2 -130 -4 -14 -3 -41 -7 -60 -10 -114 -17 -265 -63 -350 -106 -23 -12 -62 -40 -86 -62 -54 -50 -60 -89 -16 -112 l27 -15 -31 -1 c-17 0 -69 -7 -115 -15 -46 -8 -100 -17 -119 -20 l-35 -6 29 23 c105 82 166 159 166 209 0 63 -75 107 -198 118 -40 4 -74 6 -75 5z m-67 -424 c-36 -27 -319 -172 -329 -168 -5 2 1 23 13 48 23 49 36 55 241 115 99 29 106 29 75 5z m1020 16 c0 -6 -181 -107 -277 -155 -89 -44 -97 -41 -60 24 24 43 39 50 237 110 76 23 100 28 100 21z m582 -78 c-30 -31 -50 -11 -21 21 15 16 24 20 32 12 8 -8 5 -17 -11 -33z m-1932 -32 c0 -2 -6 -19 -14 -37 -7 -19 -12 -39 -10 -45 4 -10 -215 -94 -283 -108 -88 -19 -10 58 117 116 47 21 103 47 125 58 38 18 65 25 65 16z m984 -31 c-8 -20 -12 -40 -9 -45 13 -20 -298 -131 -317 -112 -23 23 69 83 242 158 99 42 102 42 84 -1z"/> <path d="M2809 613 c-23 -48 -45 -98 -50 -110 -9 -24 -77 -50 -103 -40 -23 9 -8 37 28 53 l31 13 -28 1 c-20 0 -37 -10 -55 -30 -15 -16 -32 -30 -39 -30 -11 0 -10 7 2 30 21 41 2 38 -36 -5 -17 -19 -35 -35 -41 -35 -8 0 -7 11 10 60 4 13 3 13 -11 0 -9 -8 -19 -28 -23 -44 -7 -29 -7 -29 30 -23 48 8 38 -6 -21 -28 -78 -30 -168 -88 -171 -111 -3 -24 48 -54 93 -54 61 0 117 61 139 152 9 38 40 53 77 38 28 -12 43 -11 83 6 14 5 17 4 12 -4 -16 -26 12 -10 49 28 21 22 42 40 45 40 3 0 4 -16 2 -35 -3 -22 0 -35 7 -35 17 0 74 31 68 37 -3 2 -14 0 -25 -6 -31 -16 -34 -14 -27 18 8 37 -8 48 -40 27 -14 -9 -25 -14 -25 -11 0 2 18 43 39 90 22 47 35 87 30 91 -5 3 -28 -34 -50 -83z m-277 -229 c-25 -70 -61 -104 -109 -104 -22 0 -48 6 -59 14 -19 15 -19 15 1 35 19 19 162 101 177 101 4 0 -1 -21 -10 -46z"/> <path d="M2460 510 c-19 -28 -38 -50 -42 -50 -5 0 -8 16 -8 36 0 19 -4 33 -8 30 -4 -2 -7 -22 -7 -43 0 -57 25 -55 74 7 23 29 41 56 41 61 0 20 -17 6 -50 -41z"/> <path d="M852 486 c-29 -52 -20 -58 22 -13 34 37 56 47 56 25 0 -9 3 -9 11 -1 18 18 2 31 -34 30 -28 -1 -37 -7 -55 -41z"/> </g> </svg> 